<svg width="24" height="96" viewBox="0 0 24 96" fill="none" xmlns="http://www.w3.org/2000/svg">
<path d="M6.68552 82.513L4.09018 84.9652L11.2251 91.7391L24 79.6261L21.4047 77.1652L11.2251 86.8174L6.68552 82.513Z" fill="white" fill-opacity="0.4"/>
<path d="M19.2587 93.3913C19.2587 93.6219 19.1621 93.8431 18.9901 94.0062C18.8181 94.1693 18.5848 94.2609 18.3416 94.2609H2.75124C2.50802 94.2609 2.27475 94.1693 2.10277 94.0062C1.93078 93.8431 1.83416 93.6219 1.83416 93.3913V78.6087C1.83416 78.3781 1.93078 78.1569 2.10277 77.9938C2.27475 77.8307 2.50802 77.7391 2.75124 77.7391H18.2591L19.7081 76.3565C19.2932 76.1266 18.8221 76.0037 18.3416 76H2.75124C2.02157 76 1.32178 76.2748 0.80582 76.7641C0.289862 77.2533 0 77.9168 0 78.6087V93.3913C0 94.0832 0.289862 94.7467 0.80582 95.2359C1.32178 95.7252 2.02157 96 2.75124 96H18.3416C19.0713 96 19.7711 95.7252 20.287 95.2359C20.803 94.7467 21.0929 94.0832 21.0929 93.3913V84.8435L19.2587 86.5826V93.3913Z" fill="white" fill-opacity="0.4"/>
<path d="M6.68552 44.513L4.09018 46.9652L11.2251 53.7391L24 41.6261L21.4047 39.1652L11.2251 48.8174L6.68552 44.513Z" fill="white"/>
<path d="M19.2587 55.3913C19.2587 55.6219 19.1621 55.8431 18.9901 56.0062C18.8181 56.1693 18.5848 56.2609 18.3416 56.2609H2.75124C2.50802 56.2609 2.27475 56.1693 2.10277 56.0062C1.93078 55.8431 1.83416 55.6219 1.83416 55.3913V40.6087C1.83416 40.3781 1.93078 40.1569 2.10277 39.9938C2.27475 39.8307 2.50802 39.7391 2.75124 39.7391H18.2591L19.7081 38.3565C19.2932 38.1266 18.8221 38.0037 18.3416 38H2.75124C2.02157 38 1.32178 38.2748 0.80582 38.7641C0.289862 39.2533 0 39.9168 0 40.6087V55.3913C0 56.0832 0.289862 56.7467 0.80582 57.2359C1.32178 57.7252 2.02157 58 2.75124 58H18.3416C19.0713 58 19.7711 57.7252 20.287 57.2359C20.803 56.7467 21.0929 56.0832 21.0929 55.3913V46.8435L19.2587 48.5826V55.3913Z" fill="white"/>
<path d="M6.68552 6.51304L4.09018 8.96522L11.2251 15.7391L24 3.62609L21.4047 1.16522L11.2251 10.8174L6.68552 6.51304Z" fill="white" fill-opacity="0.8"/>
<path d="M19.2587 17.3913C19.2587 17.6219 19.1621 17.8431 18.9901 18.0062C18.8181 18.1693 18.5848 18.2609 18.3416 18.2609H2.75124C2.50802 18.2609 2.27475 18.1693 2.10277 18.0062C1.93078 17.8431 1.83416 17.6219 1.83416 17.3913V2.6087C1.83416 2.37807 1.93078 2.1569 2.10277 1.99382C2.27475 1.83074 2.50802 1.73913 2.75124 1.73913H18.2591L19.7081 0.356522C19.2932 0.126574 18.8221 0.00365521 18.3416 0H2.75124C2.02157 0 1.32178 0.274844 0.80582 0.764069C0.289862 1.25329 0 1.91683 0 2.6087V17.3913C0 18.0832 0.289862 18.7467 0.80582 19.2359C1.32178 19.7252 2.02157 20 2.75124 20H18.3416C19.0713 20 19.7711 19.7252 20.287 19.2359C20.803 18.7467 21.0929 18.0832 21.0929 17.3913V8.84348L19.2587 10.5826V17.3913Z" fill="white" fill-opacity="0.8"/>
</svg>
