<svg width="20" height="96" viewBox="0 0 20 96" fill="none" xmlns="http://www.w3.org/2000/svg">
<path d="M17.3913 77.7391C17.6219 77.7391 17.8431 77.8307 18.0062 77.9938C18.1693 78.1569 18.2609 78.3781 18.2609 78.6087V93.3913C18.2609 93.6219 18.1693 93.8431 18.0062 94.0062C17.8431 94.1693 17.6219 94.2609 17.3913 94.2609H2.6087C2.37807 94.2609 2.1569 94.1693 1.99382 94.0062C1.83074 93.8431 1.73913 93.6219 1.73913 93.3913V78.6087C1.73913 78.3781 1.83074 78.1569 1.99382 77.9938C2.1569 77.8307 2.37807 77.7391 2.6087 77.7391H17.3913ZM17.3913 76H2.6087C1.91683 76 1.25329 76.2748 0.764069 76.7641C0.274844 77.2533 0 77.9168 0 78.6087L0 93.3913C0 94.0832 0.274844 94.7467 0.764069 95.2359C1.25329 95.7252 1.91683 96 2.6087 96H17.3913C18.0832 96 18.7467 95.7252 19.2359 95.2359C19.7252 94.7467 20 94.0832 20 93.3913V78.6087C20 77.9168 19.7252 77.2533 19.2359 76.7641C18.7467 76.2748 18.0832 76 17.3913 76V76Z" fill="white" fill-opacity="0.4"/>
<path d="M17.3913 39.7391C17.6219 39.7391 17.8431 39.8307 18.0062 39.9938C18.1693 40.1569 18.2609 40.3781 18.2609 40.6087V55.3913C18.2609 55.6219 18.1693 55.8431 18.0062 56.0062C17.8431 56.1693 17.6219 56.2609 17.3913 56.2609H2.6087C2.37807 56.2609 2.1569 56.1693 1.99382 56.0062C1.83074 55.8431 1.73913 55.6219 1.73913 55.3913V40.6087C1.73913 40.3781 1.83074 40.1569 1.99382 39.9938C2.1569 39.8307 2.37807 39.7391 2.6087 39.7391H17.3913ZM17.3913 38H2.6087C1.91683 38 1.25329 38.2748 0.764069 38.7641C0.274844 39.2533 0 39.9168 0 40.6087L0 55.3913C0 56.0832 0.274844 56.7467 0.764069 57.2359C1.25329 57.7252 1.91683 58 2.6087 58H17.3913C18.0832 58 18.7467 57.7252 19.2359 57.2359C19.7252 56.7467 20 56.0832 20 55.3913V40.6087C20 39.9168 19.7252 39.2533 19.2359 38.7641C18.7467 38.2748 18.0832 38 17.3913 38V38Z" fill="white"/>
<path d="M17.3913 1.73913C17.6219 1.73913 17.8431 1.83074 18.0062 1.99382C18.1693 2.1569 18.2609 2.37807 18.2609 2.6087V17.3913C18.2609 17.6219 18.1693 17.8431 18.0062 18.0062C17.8431 18.1693 17.6219 18.2609 17.3913 18.2609H2.6087C2.37807 18.2609 2.1569 18.1693 1.99382 18.0062C1.83074 17.8431 1.73913 17.6219 1.73913 17.3913V2.6087C1.73913 2.37807 1.83074 2.1569 1.99382 1.99382C2.1569 1.83074 2.37807 1.73913 2.6087 1.73913H17.3913ZM17.3913 0H2.6087C1.91683 0 1.25329 0.274844 0.764069 0.764069C0.274844 1.25329 0 1.91683 0 2.6087L0 17.3913C0 18.0832 0.274844 18.7467 0.764069 19.2359C1.25329 19.7252 1.91683 20 2.6087 20H17.3913C18.0832 20 18.7467 19.7252 19.2359 19.2359C19.7252 18.7467 20 18.0832 20 17.3913V2.6087C20 1.91683 19.7252 1.25329 19.2359 0.764069C18.7467 0.274844 18.0832 0 17.3913 0V0Z" fill="white" fill-opacity="0.8"/>
</svg>
