<svg width="22" height="25" viewBox="0 0 22 25" fill="none" xmlns="http://www.w3.org/2000/svg">
<path opacity="0.3" d="M11 22.7272C8.08262 22.7272 5.28473 21.5299 3.22183 19.3988C1.15893 17.2677 0 14.3773 0 11.3635L0 13.6363C0 16.6501 1.15893 19.5405 3.22183 21.6716C5.28473 23.8027 8.08262 24.9999 11 24.9999C13.9174 24.9999 16.7153 23.8027 18.7782 21.6716C20.8411 19.5405 22 16.6501 22 13.6363V11.3635C22 14.3773 20.8411 17.2677 18.7782 19.3988C16.7153 21.5299 13.9174 22.7272 11 22.7272Z" fill="#ABABAB"/>
<path d="M11 22.7273C17.0751 22.7273 22 17.6396 22 11.3636C22 5.08767 17.0751 0 11 0C4.92487 0 0 5.08767 0 11.3636C0 17.6396 4.92487 22.7273 11 22.7273Z" fill="white"/>
<path d="M10.9998 13.6363C12.2148 13.6363 13.1998 12.6187 13.1998 11.3635C13.1998 10.1084 12.2148 9.09082 10.9998 9.09082C9.78478 9.09082 8.7998 10.1084 8.7998 11.3635C8.7998 12.6187 9.78478 13.6363 10.9998 13.6363Z" fill="#ABABAB"/>
</svg>
