<svg width="22" height="98" viewBox="0 0 22 98" fill="none" xmlns="http://www.w3.org/2000/svg">
<path d="M11 79.52C12.4794 79.52 13.9256 79.9587 15.1557 80.7806C16.3857 81.6025 17.3445 82.7707 17.9106 84.1375C18.4768 85.5043 18.6249 87.0083 18.3363 88.4593C18.0477 89.9103 17.3353 91.2431 16.2892 92.2892C15.2431 93.3353 13.9103 94.0477 12.4593 94.3363C11.0083 94.6249 9.50432 94.4768 8.13753 93.9106C6.77074 93.3445 5.60252 92.3857 4.78061 91.1557C3.9587 89.9256 3.52 88.4794 3.52 87C3.52233 85.0169 4.31115 83.1157 5.71342 81.7134C7.11568 80.3111 9.0169 79.5223 11 79.52ZM11 76C8.82441 76 6.69767 76.6451 4.88873 77.8538C3.07979 79.0625 1.66989 80.7805 0.83733 82.7905C0.00476611 84.8005 -0.213071 87.0122 0.211367 89.146C0.635804 91.2798 1.68345 93.2398 3.22183 94.7782C4.76021 96.3165 6.72022 97.3642 8.85401 97.7886C10.9878 98.2131 13.1995 97.9952 15.2095 97.1627C17.2195 96.3301 18.9375 94.9202 20.1462 93.1113C21.3549 91.3023 22 89.1756 22 87C22 84.0826 20.8411 81.2847 18.7782 79.2218C16.7153 77.1589 13.9174 76 11 76V76Z" fill="white" fill-opacity="0.4"/>
<path d="M11 90.96C13.1871 90.96 14.96 89.1871 14.96 87C14.96 84.813 13.1871 83.04 11 83.04C8.81299 83.04 7.04004 84.813 7.04004 87C7.04004 89.1871 8.81299 90.96 11 90.96Z" fill="white" fill-opacity="0.4"/>
<path d="M11 41.52C12.4794 41.52 13.9256 41.9587 15.1557 42.7806C16.3857 43.6025 17.3445 44.7707 17.9106 46.1375C18.4768 47.5043 18.6249 49.0083 18.3363 50.4593C18.0477 51.9103 17.3353 53.2431 16.2892 54.2892C15.2431 55.3353 13.9103 56.0477 12.4593 56.3363C11.0083 56.6249 9.50432 56.4768 8.13753 55.9106C6.77074 55.3445 5.60252 54.3857 4.78061 53.1557C3.9587 51.9256 3.52 50.4794 3.52 49C3.52233 47.0169 4.31115 45.1157 5.71342 43.7134C7.11568 42.3111 9.0169 41.5223 11 41.52ZM11 38C8.82441 38 6.69767 38.6451 4.88873 39.8538C3.07979 41.0625 1.66989 42.7805 0.83733 44.7905C0.00476611 46.8005 -0.213071 49.0122 0.211367 51.146C0.635804 53.2798 1.68345 55.2398 3.22183 56.7782C4.76021 58.3165 6.72022 59.3642 8.85401 59.7886C10.9878 60.2131 13.1995 59.9952 15.2095 59.1627C17.2195 58.3301 18.9375 56.9202 20.1462 55.1113C21.3549 53.3023 22 51.1756 22 49C22 46.0826 20.8411 43.2847 18.7782 41.2218C16.7153 39.1589 13.9174 38 11 38V38Z" fill="white"/>
<path d="M11 52.96C13.1871 52.96 14.96 51.1871 14.96 49C14.96 46.813 13.1871 45.04 11 45.04C8.81299 45.04 7.04004 46.813 7.04004 49C7.04004 51.1871 8.81299 52.96 11 52.96Z" fill="white"/>
<path d="M11 3.52C12.4794 3.52 13.9256 3.95869 15.1557 4.78061C16.3857 5.60252 17.3445 6.77073 17.9106 8.13753C18.4768 9.50432 18.6249 11.0083 18.3363 12.4593C18.0477 13.9103 17.3353 15.2431 16.2892 16.2892C15.2431 17.3353 13.9103 18.0477 12.4593 18.3363C11.0083 18.6249 9.50432 18.4768 8.13753 17.9106C6.77074 17.3445 5.60252 16.3857 4.78061 15.1557C3.9587 13.9256 3.52 12.4794 3.52 11C3.52233 9.01689 4.31115 7.11568 5.71342 5.71341C7.11568 4.31115 9.0169 3.52233 11 3.52ZM11 0C8.82441 0 6.69767 0.645139 4.88873 1.85383C3.07979 3.06253 1.66989 4.78049 0.83733 6.79048C0.00476611 8.80047 -0.213071 11.0122 0.211367 13.146C0.635804 15.2798 1.68345 17.2398 3.22183 18.7782C4.76021 20.3165 6.72022 21.3642 8.85401 21.7886C10.9878 22.2131 13.1995 21.9952 15.2095 21.1627C17.2195 20.3301 18.9375 18.9202 20.1462 17.1113C21.3549 15.3023 22 13.1756 22 11C22 8.08262 20.8411 5.28472 18.7782 3.22182C16.7153 1.15893 13.9174 0 11 0V0Z" fill="white" fill-opacity="0.8"/>
<path d="M11 14.96C13.1871 14.96 14.96 13.1871 14.96 11C14.96 8.81299 13.1871 7.04004 11 7.04004C8.81299 7.04004 7.04004 8.81299 7.04004 11C7.04004 13.1871 8.81299 14.96 11 14.96Z" fill="white" fill-opacity="0.8"/>
</svg>
